<svg width="30" height="50" viewBox="0 0 30 50" fill="none" xmlns="http://www.w3.org/2000/svg">
<path d="M24 18.9979V10.9979C23.9996 10.6472 23.9071 10.3028 23.7315 9.99911C23.556 9.69546 23.3037 9.44331 23 9.26795L16 5.26795C15.696 5.09241 15.3511 5 15 5C14.6489 5 14.304 5.09241 14 5.26795L7 9.26795C6.69626 9.44331 6.44398 9.69546 6.26846 9.99911C6.09294 10.3028 6.00036 10.6472 6 10.9979V18.9979C6.00036 19.3487 6.09294 19.6931 6.26846 19.9968C6.44398 20.3004 6.69626 20.5526 7 20.7279L14 24.7279C14.304 24.9035 14.6489 24.9959 15 24.9959C15.3511 24.9959 15.696 24.9035 16 24.7279L23 20.7279C23.3037 20.5526 23.556 20.3004 23.7315 19.9968C23.9071 19.6931 23.9996 19.3487 24 18.9979Z" stroke="#F7931E" stroke-width="2" stroke-linecap="round" stroke-linejoin="round"/>
<path d="M6.27002 9.95795L15 15.0079L23.73 9.95795" stroke="#F7931E" stroke-width="2" stroke-linecap="round" stroke-linejoin="round"/>
<path d="M15 25.078V14.998" stroke="#F7931E" stroke-width="2" stroke-linecap="round" stroke-linejoin="round"/>
<path d="M8.148 42V35.196H9.1L9.198 36.176H9.24C9.53867 35.8493 9.86067 35.5787 10.206 35.364C10.5607 35.14 10.9433 35.028 11.354 35.028C11.8767 35.028 12.2827 35.1447 12.572 35.378C12.8707 35.602 13.09 35.9193 13.23 36.33C13.5847 35.938 13.9393 35.6253 14.294 35.392C14.658 35.1493 15.05 35.028 15.47 35.028C16.17 35.028 16.688 35.252 17.024 35.7C17.3693 36.148 17.542 36.8107 17.542 37.688V42H16.394V37.842C16.394 37.198 16.2913 36.736 16.086 36.456C15.8807 36.1667 15.5633 36.022 15.134 36.022C14.6207 36.022 14.0513 36.372 13.426 37.072V42H12.278V37.842C12.278 37.198 12.1753 36.736 11.97 36.456C11.7647 36.1667 11.4427 36.022 11.004 36.022C10.4907 36.022 9.92133 36.372 9.296 37.072V42H8.148ZM21.1274 36.638C20.6794 36.638 20.2828 36.54 19.9374 36.344C19.5921 36.1387 19.3121 35.882 19.0974 35.574L19.6994 35.112C19.8674 35.364 20.0681 35.5647 20.3014 35.714C20.5348 35.854 20.7961 35.924 21.0854 35.924C21.3841 35.924 21.6408 35.84 21.8554 35.672C22.0701 35.504 22.1774 35.2613 22.1774 34.944C22.1774 34.6267 22.0281 34.3887 21.7294 34.23C21.4308 34.062 21.0154 33.978 20.4834 33.978V33.404C20.9594 33.404 21.3234 33.3107 21.5754 33.124C21.8368 32.9373 21.9674 32.704 21.9674 32.424C21.9674 32.1627 21.8741 31.9527 21.6874 31.794C21.5101 31.6353 21.2721 31.556 20.9734 31.556C20.7681 31.556 20.5721 31.6213 20.3854 31.752C20.1988 31.8733 20.0261 32.0273 19.8674 32.214L19.3214 31.738C19.5641 31.4673 19.8254 31.2527 20.1054 31.094C20.3948 30.926 20.7308 30.842 21.1134 30.842C21.3468 30.842 21.5661 30.8747 21.7714 30.94C21.9861 31.0053 22.1728 31.1033 22.3314 31.234C22.4901 31.3553 22.6161 31.5093 22.7094 31.696C22.8028 31.8733 22.8494 32.0787 22.8494 32.312C22.8494 32.6387 22.7608 32.914 22.5834 33.138C22.4061 33.3527 22.1774 33.5253 21.8974 33.656C22.2054 33.7307 22.4761 33.8847 22.7094 34.118C22.9521 34.342 23.0734 34.636 23.0734 35C23.0734 35.252 23.0221 35.4807 22.9194 35.686C22.8168 35.882 22.6768 36.0547 22.4994 36.204C22.3221 36.344 22.1121 36.4513 21.8694 36.526C21.6361 36.6007 21.3888 36.638 21.1274 36.638Z" fill="#808080"/>
</svg>
