<svg width="30" height="30" viewBox="0 0 30 30" fill="none" xmlns="http://www.w3.org/2000/svg">
<path d="M20.73 10.73C21.0208 10.4399 21.3787 10.2259 21.7719 10.107C22.1652 9.98809 22.5816 9.96792 22.9845 10.0483C23.3874 10.1286 23.7642 10.307 24.0817 10.5677C24.3993 10.8283 24.6477 11.1632 24.805 11.5427C24.9623 11.9222 25.0236 12.3346 24.9836 12.7434C24.9436 13.1523 24.8035 13.545 24.5756 13.8868C24.3477 14.2286 24.0391 14.509 23.6771 14.7031C23.3151 14.8973 22.9108 14.9992 22.5 15H5M12.59 7.58998C12.8223 7.3563 13.1088 7.18363 13.4239 7.08732C13.739 6.99102 14.073 6.97407 14.3963 7.03797C14.7195 7.10188 15.022 7.24466 15.2768 7.45363C15.5315 7.66259 15.7307 7.93127 15.8566 8.23578C15.9825 8.54028 16.0313 8.87117 15.9985 9.19905C15.9657 9.52692 15.8524 9.84161 15.6687 10.1151C15.4849 10.3887 15.2365 10.6126 14.9454 10.7669C14.6542 10.9213 14.3295 11.0014 14 11H5L12.59 7.58998ZM15.59 22.41C15.8223 22.6437 16.1088 22.8163 16.4239 22.9126C16.739 23.0089 17.073 23.0259 17.3963 22.962C17.7195 22.8981 18.022 22.7553 18.2768 22.5463C18.5315 22.3374 18.7307 22.0687 18.8566 21.7642C18.9825 21.4597 19.0313 21.1288 18.9985 20.8009C18.9657 20.473 18.8524 20.1584 18.6687 19.8848C18.4849 19.6113 18.2365 19.3874 17.9454 19.233C17.6542 19.0786 17.3295 18.9986 17 19H5L15.59 22.41Z" stroke="#F7931E" stroke-width="2" stroke-linecap="round" stroke-linejoin="round"/>
</svg>
